solid REP-Y2_V3
facet normal 0.8660254037845772 0.49999999999976025 1.793087243993493e-13
  outer loop
    vertex 6.614359353944893 35.69999237064491 4.00000000001087
    vertex 6.454518677940159 36.08588189845993 8.000000000011593
    vertex 6.614359353947567 35.69999237062397 8.00000000001087
  endloop
endfacet
facet normal 0.9659258262889969 0.2588190451027875 3.1307026820421545e-14
  outer loop
    vertex 6.454518677940159 36.08588189845993 8.000000000011593
    vertex 6.614359353944893 35.69999237064491 4.00000000001087
    vertex 6.454518677937487 36.08588189848087 4.0000000000115925
  endloop
endfacet
facet normal 0.9659258262891405 0.25881904510225145 3.13070268201019e-14
  outer loop
    vertex 6.454518677937487 36.08588189848087 4.0000000000115925
    vertex 6.40000000000267 36.499992370623964 8.000000000012438
    vertex 6.454518677940159 36.08588189845993 8.000000000011593
  endloop
endfacet
facet normal 1.0 2.5883209802893444e-13 -1.188281928993228e-13
  outer loop
    vertex 6.40000000000267 36.499992370623964 8.000000000012438
    vertex 6.454518677937487 36.08588189848087 4.0000000000115925
    vertex 6.399999999999997 36.499992370644904 4.000000000012434
  endloop
endfacet
facet normal 1.0 -2.608281866456116e-13 -1.1882819289961613e-13
  outer loop
    vertex 6.399999999999997 36.499992370644904 4.000000000012434
    vertex 6.454518677940161 36.914102842788 8.00000000001334
    vertex 6.40000000000267 36.499992370623964 8.000000000012438
  endloop
endfacet
facet normal 0.965925826289126 -0.25881904510230586 -2.608654676458607e-13
  outer loop
    vertex 6.454518677940161 36.914102842788 8.00000000001334
    vertex 6.399999999999997 36.499992370644904 4.000000000012434
    vertex 6.454518677937488 36.914102842808944 4.000000000013337
  endloop
endfacet
facet normal 0.9659258262890097 -0.2588190451027399 -2.608654676460918e-13
  outer loop
    vertex 6.454518677937488 36.914102842808944 4.000000000013337
    vertex 6.6143593539475685 37.29999237062396 8.000000000014243
    vertex 6.454518677940161 36.914102842788 8.00000000001334
  endloop
endfacet
facet normal 0.8660254037845264 -0.4999999999998481 -3.851251918729013e-13
  outer loop
    vertex 6.6143593539475685 37.29999237062396 8.000000000014243
    vertex 6.454518677937488 36.914102842808944 4.000000000013337
    vertex 6.614359353944895 37.2999923706449 4.00000000001424
  endloop
endfacet
facet normal 0.8660254037843519 -0.5000000000001501 -3.851251918730508e-13
  outer loop
    vertex 6.614359353944895 37.2999923706449 4.00000000001424
    vertex 6.868629150104196 37.631363220522445 8.000000000015078
    vertex 6.6143593539475685 37.29999237062396 8.000000000014243
  endloop
endfacet
facet normal 0.7071067811866288 -0.7071067811864663 -4.831392707232703e-13
  outer loop
    vertex 6.868629150104196 37.631363220522445 8.000000000015078
    vertex 6.614359353944895 37.2999923706449 4.00000000001424
    vertex 6.868629150101523 37.631363220543385 4.000000000015081
  endloop
endfacet
facet normal 0.4999999999999571 -0.8660254037844636 -5.482282066992478e-13
  outer loop
    vertex 7.199999999999999 37.88563301670001 4.000000000015803
    vertex 6.868629150104196 37.631363220522445 8.000000000015078
    vertex 6.868629150101523 37.631363220543385 4.000000000015081
  endloop
endfacet
facet normal 0.7071067811866288 -0.7071067811864663 -4.831392707232703e-13
  outer loop
    vertex 6.868629150104196 37.631363220522445 8.000000000015078
    vertex 7.199999999999999 37.88563301670001 4.000000000015803
    vertex 7.200000000002673 37.88563301667907 8.000000000015799
  endloop
endfacet
facet normal 0.25881904510254894 -0.9659258262890609 -5.759562963785655e-13
  outer loop
    vertex 7.585889527835966 38.04547369270741 4.000000000016358
    vertex 7.200000000002673 37.88563301667907 8.000000000015799
    vertex 7.199999999999999 37.88563301670001 4.000000000015803
  endloop
endfacet
facet normal 0.5000000000000278 -0.8660254037844226 -5.482282066992331e-13
  outer loop
    vertex 7.200000000002673 37.88563301667907 8.000000000015799
    vertex 7.585889527835966 38.04547369270741 4.000000000016358
    vertex 7.585889527838639 38.04547369268647 8.000000000016364
  endloop
endfacet
facet normal 1.0219260828330545e-13 -1.0 -5.644339162724898e-13
  outer loop
    vertex 7.999999999999999 38.099992370644905 4.000000000016706
    vertex 7.585889527838639 38.04547369268647 8.000000000016364
    vertex 7.585889527835966 38.04547369270741 4.000000000016358
  endloop
endfacet
facet normal 0.2588190451024878 -0.9659258262890772 -5.759562963785674e-13
  outer loop
    vertex 7.585889527838639 38.04547369268647 8.000000000016364
    vertex 7.999999999999999 38.099992370644905 4.000000000016706
    vertex 8.000000000002673 38.099992370623966 8.000000000016701
  endloop
endfacet
facet normal -5.940983440935362e-14 6.869262103581519e-14 -1.0
  outer loop
    vertex 3.9999999999999996 44.499992370644904 4.000000000038368
    vertex 6.454518677937488 36.914102842808944 4.000000000013337
    vertex 3.9999999999999996 28.4999923706449 4.000000000038368
  endloop
endfacet
facet normal -5.940983440935362e-14 6.869262103581519e-14 -1.0
  outer loop
    vertex 6.454518677937488 36.914102842808944 4.000000000013337
    vertex 3.9999999999999996 44.499992370644904 4.000000000038368
    vertex 6.614359353944895 37.2999923706449 4.00000000001424
  endloop
endfacet
facet normal -5.940983440935362e-14 6.869262103581519e-14 -1.0
  outer loop
    vertex 6.614359353944895 37.2999923706449 4.00000000001424
    vertex 3.9999999999999996 44.499992370644904 4.000000000038368
    vertex 6.868629150101523 37.631363220543385 4.000000000015081
  endloop
endfacet
facet normal -5.940983440935362e-14 6.869262103581519e-14 -1.0
  outer loop
    vertex 6.868629150101523 37.631363220543385 4.000000000015081
    vertex 3.9999999999999996 44.499992370644904 4.000000000038368
    vertex 7.199999999999999 37.88563301670001 4.000000000015803
  endloop
endfacet
facet normal -5.940983440935362e-14 6.869262103581519e-14 -1.0
  outer loop
    vertex 7.199999999999999 37.88563301670001 4.000000000015803
    vertex 3.9999999999999996 44.499992370644904 4.000000000038368
    vertex 18.50000000000002 44.499992370644904 4.000000000038844
  endloop
endfacet
facet normal -5.940983440935362e-14 6.869262103581519e-14 -1.0
  outer loop
    vertex 3.9999999999999996 28.4999923706449 4.000000000038368
    vertex 6.454518677937488 36.914102842808944 4.000000000013337
    vertex 6.399999999999997 36.499992370644904 4.000000000012434
  endloop
endfacet
facet normal -5.940983440935362e-14 6.869262103581519e-14 -1.0
  outer loop
    vertex 7.199999999999999 37.88563301670001 4.000000000015803
    vertex 18.50000000000002 44.499992370644904 4.000000000038844
    vertex 7.585889527835966 38.04547369270741 4.000000000016358
  endloop
endfacet
facet normal -5.940983440935362e-14 6.869262103581519e-14 -1.0
  outer loop
    vertex 7.585889527835966 38.04547369270741 4.000000000016358
    vertex 18.50000000000002 44.499992370644904 4.000000000038844
    vertex 7.999999999999999 38.099992370644905 4.000000000016706
  endloop
endfacet
facet normal -5.940983440935362e-14 6.869262103581519e-14 -1.0
  outer loop
    vertex 7.999999999999999 38.099992370644905 4.000000000016706
    vertex 18.50000000000002 44.499992370644904 4.000000000038844
    vertex 8.414110472164031 38.04547369270741 4.000000000016825
  endloop
endfacet
facet normal -5.940983440935362e-14 6.869262103581519e-14 -1.0
  outer loop
    vertex 8.414110472164031 38.04547369270741 4.000000000016825
    vertex 18.50000000000002 44.499992370644904 4.000000000038844
    vertex 8.799999999999997 37.885633016700005 4.000000000016706
  endloop
endfacet
facet normal -5.940983440935362e-14 6.869262103581519e-14 -1.0
  outer loop
    vertex 8.799999999999997 37.885633016700005 4.000000000016706
    vertex 18.50000000000002 44.499992370644904 4.000000000038844
    vertex 9.131370849898474 37.63136322054338 4.000000000016358
  endloop
endfacet
facet normal -5.940983440935362e-14 6.869262103581519e-14 -1.0
  outer loop
    vertex 9.131370849898474 37.63136322054338 4.000000000016358
    vertex 18.50000000000002 44.499992370644904 4.000000000038844
    vertex 9.3856406460551 37.2999923706449 4.000000000015803
  endloop
endfacet
facet normal -5.940983440935362e-14 6.869262103581519e-14 -1.0
  outer loop
    vertex 9.3856406460551 37.2999923706449 4.000000000015803
    vertex 18.50000000000002 44.499992370644904 4.000000000038844
    vertex 9.545481322062507 36.91410284280894 4.000000000015081
  endloop
endfacet
facet normal -5.940983440935362e-14 6.869262103581519e-14 -1.0
  outer loop
    vertex 9.545481322062507 36.91410284280894 4.000000000015081
    vertex 18.50000000000002 44.499992370644904 4.000000000038844
    vertex 9.599999999999996 36.49999237064491 4.00000000001424
  endloop
endfacet
facet normal -5.940983440935362e-14 6.869262103581519e-14 -1.0
  outer loop
    vertex 3.9999999999999996 28.4999923706449 4.000000000038368
    vertex 7.199999999999995 35.1143517245898 4.000000000009968
    vertex 18.50000000000002 28.4999923706449 4.000000000036645
  endloop
endfacet
facet normal -5.940983440935362e-14 6.869262103581519e-14 -1.0
  outer loop
    vertex 7.199999999999995 35.1143517245898 4.000000000009968
    vertex 3.9999999999999996 28.4999923706449 4.000000000038368
    vertex 6.86862915010152 35.36862152074643 4.000000000010316
  endloop
endfacet
facet normal -5.940983440935362e-14 6.869262103581519e-14 -1.0
  outer loop
    vertex 6.86862915010152 35.36862152074643 4.000000000010316
    vertex 3.9999999999999996 28.4999923706449 4.000000000038368
    vertex 6.614359353944893 35.69999237064491 4.00000000001087
  endloop
endfacet
facet normal -5.940983440935362e-14 6.869262103581519e-14 -1.0
  outer loop
    vertex 6.614359353944893 35.69999237064491 4.00000000001087
    vertex 3.9999999999999996 28.4999923706449 4.000000000038368
    vertex 6.454518677937487 36.08588189848087 4.0000000000115925
  endloop
endfacet
facet normal -5.940983440935362e-14 6.869262103581519e-14 -1.0
  outer loop
    vertex 6.454518677937487 36.08588189848087 4.0000000000115925
    vertex 3.9999999999999996 28.4999923706449 4.000000000038368
    vertex 6.399999999999997 36.499992370644904 4.000000000012434
  endloop
endfacet
facet normal -5.940983440935362e-14 6.869262103581519e-14 -1.0
  outer loop
    vertex 18.50000000000002 28.4999923706449 4.000000000036645
    vertex 7.199999999999995 35.1143517245898 4.000000000009968
    vertex 7.5858895278359615 34.9545110485824 4.000000000009848
  endloop
endfacet
facet normal -5.940983440935362e-14 6.869262103581519e-14 -1.0
  outer loop
    vertex 18.50000000000002 28.4999923706449 4.000000000036645
    vertex 7.5858895278359615 34.9545110485824 4.000000000009848
    vertex 7.999999999999996 34.8999923706449 4.000000000009968
  endloop
endfacet
facet normal -5.940983440935362e-14 6.869262103581519e-14 -1.0
  outer loop
    vertex 18.50000000000002 28.4999923706449 4.000000000036645
    vertex 7.999999999999996 34.8999923706449 4.000000000009968
    vertex 8.414110472164028 34.9545110485824 4.000000000010316
  endloop
endfacet
facet normal -5.940983440935362e-14 6.869262103581519e-14 -1.0
  outer loop
    vertex 18.50000000000002 28.4999923706449 4.000000000036645
    vertex 8.414110472164028 34.9545110485824 4.000000000010316
    vertex 8.799999999999994 35.114351724589795 4.00000000001087
  endloop
endfacet
facet normal -5.940983440935362e-14 6.869262103581519e-14 -1.0
  outer loop
    vertex 18.50000000000002 28.4999923706449 4.000000000036645
    vertex 8.799999999999994 35.114351724589795 4.00000000001087
    vertex 9.131370849898472 35.36862152074642 4.0000000000115925
  endloop
endfacet
facet normal -5.940983440935362e-14 6.869262103581519e-14 -1.0
  outer loop
    vertex 18.50000000000002 28.4999923706449 4.000000000036645
    vertex 9.131370849898472 35.36862152074642 4.0000000000115925
    vertex 9.385640646055098 35.69999237064491 4.000000000012434
  endloop
endfacet
facet normal -5.940983440935362e-14 6.869262103581519e-14 -1.0
  outer loop
    vertex 18.50000000000002 28.4999923706449 4.000000000036645
    vertex 9.385640646055098 35.69999237064491 4.000000000012434
    vertex 9.545481322062507 36.08588189848087 4.000000000013337
  endloop
endfacet
facet normal -5.940983440935362e-14 6.869262103581519e-14 -1.0
  outer loop
    vertex 18.50000000000002 28.4999923706449 4.000000000036645
    vertex 9.545481322062507 36.08588189848087 4.000000000013337
    vertex 9.599999999999996 36.49999237064491 4.00000000001424
  endloop
endfacet
facet normal -5.940983440935362e-14 6.869262103581519e-14 -1.0
  outer loop
    vertex 18.50000000000002 28.4999923706449 4.000000000036645
    vertex 9.599999999999996 36.49999237064491 4.00000000001424
    vertex 18.50000000000002 44.499992370644904 4.000000000038844
  endloop
endfacet
facet normal -0.25881904510236403 -0.9659258262891103 -5.144462975436114e-13
  outer loop
    vertex 8.414110472164031 38.04547369270741 4.000000000016825
    vertex 8.000000000002673 38.099992370623966 8.000000000016701
    vertex 7.999999999999999 38.099992370644905 4.000000000016706
  endloop
endfacet
facet normal -1.0217478606345977e-13 -1.0 -5.644339162724654e-13
  outer loop
    vertex 8.000000000002673 38.099992370623966 8.000000000016701
    vertex 8.414110472164031 38.04547369270741 4.000000000016825
    vertex 8.414110472166705 38.04547369268647 8.000000000016826
  endloop
endfacet
facet normal -0.500000000000189 -0.8660254037843297 -4.2940001379968595e-13
  outer loop
    vertex 8.80000000000267 37.885633016679066 8.000000000016701
    vertex 8.414110472164031 38.04547369270741 4.000000000016825
    vertex 8.799999999999997 37.885633016700005 4.000000000016706
  endloop
endfacet
facet normal -0.25881904510236403 -0.9659258262891103 -5.144462975436114e-13
  outer loop
    vertex 8.414110472164031 38.04547369270741 4.000000000016825
    vertex 8.80000000000267 37.885633016679066 8.000000000016701
    vertex 8.414110472166705 38.04547369268647 8.000000000016826
  endloop
endfacet
facet normal -0.7071067811867296 -0.7071067811863655 -3.150908287324669e-13
  outer loop
    vertex 9.131370849901147 37.63136322052244 8.000000000016364
    vertex 8.799999999999997 37.885633016700005 4.000000000016706
    vertex 9.131370849898474 37.63136322054338 4.000000000016358
  endloop
endfacet
facet normal -0.4999999999998097 -0.8660254037845485 -4.2940001379985473e-13
  outer loop
    vertex 8.799999999999997 37.885633016700005 4.000000000016706
    vertex 9.131370849901147 37.63136322052244 8.000000000016364
    vertex 8.80000000000267 37.885633016679066 8.000000000016701
  endloop
endfacet
facet normal -0.7071067811867296 -0.7071067811863655 -3.150908287324669e-13
  outer loop
    vertex 9.131370849901147 37.63136322052244 8.000000000016364
    vertex 9.3856406460551 37.2999923706449 4.000000000015803
    vertex 9.385640646057773 37.29999237062396 8.000000000015799
  endloop
endfacet
facet normal -0.8660254037843008 -0.5000000000002389 -1.7930872439965236e-13
  outer loop
    vertex 9.3856406460551 37.2999923706449 4.000000000015803
    vertex 9.131370849901147 37.63136322052244 8.000000000016364
    vertex 9.131370849898474 37.63136322054338 4.000000000016358
  endloop
endfacet
facet normal -0.8660254037845767 -0.49999999999976097 -1.7930872439934979e-13
  outer loop
    vertex 9.385640646057773 37.29999237062396 8.000000000015799
    vertex 9.545481322062507 36.91410284280894 4.000000000015081
    vertex 9.54548132206518 36.914102842788 8.000000000015078
  endloop
endfacet
facet normal -0.9659258262889966 -0.25881904510278875 -3.1307026820422284e-14
  outer loop
    vertex 9.545481322062507 36.91410284280894 4.000000000015081
    vertex 9.385640646057773 37.29999237062396 8.000000000015799
    vertex 9.3856406460551 37.2999923706449 4.000000000015803
  endloop
endfacet
facet normal -0.9659258262891405 -0.2588190451022516 -3.1307026820102e-14
  outer loop
    vertex 9.54548132206518 36.914102842788 8.000000000015078
    vertex 9.599999999999996 36.49999237064491 4.00000000001424
    vertex 9.60000000000267 36.49999237062397 8.000000000014243
  endloop
endfacet
facet normal -1.0 -2.6180840873407913e-13 1.1882819289932115e-13
  outer loop
    vertex 9.599999999999996 36.49999237064491 4.00000000001424
    vertex 9.54548132206518 36.914102842788 8.000000000015078
    vertex 9.545481322062507 36.91410284280894 4.000000000015081
  endloop
endfacet
facet normal -1.0 2.589657646774224e-13 1.188281928996151e-13
  outer loop
    vertex 9.60000000000267 36.49999237062397 8.000000000014243
    vertex 9.545481322062507 36.08588189848087 4.000000000013337
    vertex 9.54548132206518 36.08588189845993 8.00000000001334
  endloop
endfacet
facet normal -0.9659258262891266 0.25881904510230336 2.608654676458593e-13
  outer loop
    vertex 9.545481322062507 36.08588189848087 4.000000000013337
    vertex 9.60000000000267 36.49999237062397 8.000000000014243
    vertex 9.599999999999996 36.49999237064491 4.00000000001424
  endloop
endfacet
facet normal -0.9659258262890104 0.25881904510273746 2.608654676460905e-13
  outer loop
    vertex 9.54548132206518 36.08588189845993 8.00000000001334
    vertex 9.385640646055098 35.69999237064491 4.000000000012434
    vertex 9.385640646057771 35.69999237062397 8.000000000012438
  endloop
endfacet
facet normal -0.8660254037845273 0.49999999999984673 3.851251918729006e-13
  outer loop
    vertex 9.385640646055098 35.69999237064491 4.000000000012434
    vertex 9.54548132206518 36.08588189845993 8.00000000001334
    vertex 9.545481322062507 36.08588189848087 4.000000000013337
  endloop
endfacet
facet normal -0.8660254037843536 0.5000000000001477 3.8512519187304974e-13
  outer loop
    vertex 9.385640646057771 35.69999237062397 8.000000000012438
    vertex 9.131370849898472 35.36862152074642 4.0000000000115925
    vertex 9.131370849901145 35.36862152072548 8.000000000011593
  endloop
endfacet
facet normal -0.7071067811866286 0.7071067811864665 4.831392707232705e-13
  outer loop
    vertex 9.131370849898472 35.36862152074642 4.0000000000115925
    vertex 9.385640646057771 35.69999237062397 8.000000000012438
    vertex 9.385640646055098 35.69999237064491 4.000000000012434
  endloop
endfacet
facet normal -0.4999999999999566 0.8660254037844639 5.48228206699248e-13
  outer loop
    vertex 8.800000000002667 35.114351724568856 8.00000000001087
    vertex 9.131370849898472 35.36862152074642 4.0000000000115925
    vertex 8.799999999999994 35.114351724589795 4.00000000001087
  endloop
endfacet
facet normal -0.7071067811866286 0.7071067811864665 4.831392707232705e-13
  outer loop
    vertex 9.131370849898472 35.36862152074642 4.0000000000115925
    vertex 8.800000000002667 35.114351724568856 8.00000000001087
    vertex 9.131370849901145 35.36862152072548 8.000000000011593
  endloop
endfacet
facet normal -0.2588190451025496 0.9659258262890607 5.759562963785655e-13
  outer loop
    vertex 8.414110472166701 34.95451104856146 8.000000000010317
    vertex 8.799999999999994 35.114351724589795 4.00000000001087
    vertex 8.414110472164028 34.9545110485824 4.000000000010316
  endloop
endfacet
facet normal -0.5000000000000283 0.8660254037844223 5.482282066992331e-13
  outer loop
    vertex 8.799999999999994 35.114351724589795 4.00000000001087
    vertex 8.414110472166701 34.95451104856146 8.000000000010317
    vertex 8.800000000002667 35.114351724568856 8.00000000001087
  endloop
endfacet
facet normal -1.0306589705307935e-13 1.0 5.644339162724898e-13
  outer loop
    vertex 8.000000000002668 34.89999237062396 8.000000000009967
    vertex 8.414110472164028 34.9545110485824 4.000000000010316
    vertex 7.999999999999996 34.8999923706449 4.000000000009968
  endloop
endfacet
facet normal -0.25881904510248843 0.965925826289077 5.759562963785675e-13
  outer loop
    vertex 8.414110472164028 34.9545110485824 4.000000000010316
    vertex 8.000000000002668 34.89999237062396 8.000000000009967
    vertex 8.414110472166701 34.95451104856146 8.000000000010317
  endloop
endfacet
facet normal 0.25881904510236375 0.9659258262891103 5.144462975436114e-13
  outer loop
    vertex 7.585889527838635 34.95451104856146 8.000000000009845
    vertex 7.999999999999996 34.8999923706449 4.000000000009968
    vertex 7.5858895278359615 34.9545110485824 4.000000000009848
  endloop
endfacet
facet normal 1.0242429714053899e-13 1.0 5.644339162724655e-13
  outer loop
    vertex 7.999999999999996 34.8999923706449 4.000000000009968
    vertex 7.585889527838635 34.95451104856146 8.000000000009845
    vertex 8.000000000002668 34.89999237062396 8.000000000009967
  endloop
endfacet
facet normal 0.5000000000001885 0.8660254037843298 4.2940001379968606e-13
  outer loop
    vertex 7.199999999999995 35.1143517245898 4.000000000009968
    vertex 7.585889527838635 34.95451104856146 8.000000000009845
    vertex 7.5858895278359615 34.9545110485824 4.000000000009848
  endloop
endfacet
facet normal 0.25881904510236375 0.9659258262891103 5.144462975436114e-13
  outer loop
    vertex 7.585889527838635 34.95451104856146 8.000000000009845
    vertex 7.199999999999995 35.1143517245898 4.000000000009968
    vertex 7.200000000002668 35.11435172456886 8.000000000009967
  endloop
endfacet
facet normal 0.7071067811867295 0.7071067811863655 3.1509082873246687e-13
  outer loop
    vertex 6.86862915010152 35.36862152074643 4.000000000010316
    vertex 7.200000000002668 35.11435172456886 8.000000000009967
    vertex 7.199999999999995 35.1143517245898 4.000000000009968
  endloop
endfacet
facet normal 0.49999999999981026 0.8660254037845482 4.294000137998544e-13
  outer loop
    vertex 7.200000000002668 35.11435172456886 8.000000000009967
    vertex 6.86862915010152 35.36862152074643 4.000000000010316
    vertex 6.868629150104193 35.36862152072549 8.000000000010317
  endloop
endfacet
facet normal 0.7071067811867295 0.7071067811863655 3.1509082873246687e-13
  outer loop
    vertex 6.86862915010152 35.36862152074643 4.000000000010316
    vertex 6.614359353947567 35.69999237062397 8.00000000001087
    vertex 6.868629150104193 35.36862152072549 8.000000000010317
  endloop
endfacet
facet normal 0.8660254037843007 0.5000000000002391 1.7930872439965246e-13
  outer loop
    vertex 6.614359353947567 35.69999237062397 8.00000000001087
    vertex 6.86862915010152 35.36862152074643 4.000000000010316
    vertex 6.614359353944893 35.69999237064491 4.00000000001087
  endloop
endfacet
facet normal -0.2588190451024399 -0.9659258262890901 -5.144462975435908e-13
  outer loop
    vertex 68.41411047216644 38.04547369272354 8.00000000001334
    vertex 68.00000000000003 38.099992370644905 4.000000000013578
    vertex 68.41411047216407 38.04547369270741 4.000000000013335
  endloop
endfacet
facet normal 2.5485774301541325e-15 -1.0 -5.64433916272478e-13
  outer loop
    vertex 68.00000000000003 38.099992370644905 4.000000000013578
    vertex 68.41411047216644 38.04547369272354 8.00000000001334
    vertex 68.00000000000242 38.099992370661035 8.000000000013577
  endloop
endfacet
facet normal -0.4999999999998526 -0.8660254037845238 -4.294000137998356e-13
  outer loop
    vertex 68.80000000000241 37.885633016716135 8.000000000013092
    vertex 68.41411047216407 38.04547369270741 4.000000000013335
    vertex 68.80000000000003 37.885633016700005 4.0000000000130935
  endloop
endfacet
facet normal -0.2588190451026091 -0.9659258262890447 -5.144462975435453e-13
  outer loop
    vertex 68.41411047216407 38.04547369270741 4.000000000013335
    vertex 68.80000000000241 37.885633016716135 8.000000000013092
    vertex 68.41411047216644 38.04547369272354 8.00000000001334
  endloop
endfacet
facet normal -0.7071067811863675 -0.7071067811867275 -3.1509082873271425e-13
  outer loop
    vertex 69.13137084990089 37.63136322055951 8.000000000012866
    vertex 68.80000000000003 37.885633016700005 4.0000000000130935
    vertex 69.1313708498985 37.63136322054338 4.000000000012868
  endloop
endfacet
facet normal -0.5000000000001504 -0.866025403784352 -4.294000137997032e-13
  outer loop
    vertex 68.80000000000003 37.885633016700005 4.0000000000130935
    vertex 69.13137084990089 37.63136322055951 8.000000000012866
    vertex 68.80000000000241 37.885633016716135 8.000000000013092
  endloop
endfacet
facet normal -0.8660254037842827 -0.5000000000002705 -1.7930872439967227e-13
  outer loop
    vertex 69.38564064605752 37.29999237066104 8.000000000012674
    vertex 69.1313708498985 37.63136322054338 4.000000000012868
    vertex 69.38564064605514 37.29999237064491 4.000000000012675
  endloop
endfacet
facet normal -0.7071067811867126 -0.7071067811863826 -3.150908287324786e-13
  outer loop
    vertex 69.1313708498985 37.63136322054338 4.000000000012868
    vertex 69.38564064605752 37.29999237066104 8.000000000012674
    vertex 69.13137084990089 37.63136322055951 8.000000000012866
  endloop
endfacet
facet normal -0.9659258262889844 -0.25881904510283404 -3.130702682044931e-14
  outer loop
    vertex 69.54548132206493 36.91410284282507 8.000000000012529
    vertex 69.38564064605514 37.29999237064491 4.000000000012675
    vertex 69.54548132206254 36.914102842808944 4.000000000012527
  endloop
endfacet
facet normal -0.8660254037845821 -0.4999999999997514 -1.7930872439934373e-13
  outer loop
    vertex 69.38564064605514 37.29999237064491 4.000000000012675
    vertex 69.54548132206493 36.91410284282507 8.000000000012529
    vertex 69.38564064605752 37.29999237066104 8.000000000012674
  endloop
endfacet
facet normal -1.0 -3.4666890827035305e-13 1.1882819289927327e-13
  outer loop
    vertex 69.60000000000241 36.49999237066103 8.000000000012438
    vertex 69.54548132206254 36.914102842808944 4.000000000012527
    vertex 69.60000000000004 36.499992370644904 4.000000000012433
  endloop
endfacet
facet normal -0.9659258262891578 -0.2588190451021871 -3.130702682006356e-14
  outer loop
    vertex 69.54548132206254 36.914102842808944 4.000000000012527
    vertex 69.60000000000241 36.49999237066103 8.000000000012438
    vertex 69.54548132206493 36.91410284282507 8.000000000012529
  endloop
endfacet
facet normal -0.9659258262891578 0.2588190451021866 2.608654676457971e-13
  outer loop
    vertex 69.54548132206493 36.085881898497 8.000000000012404
    vertex 69.60000000000004 36.499992370644904 4.000000000012433
    vertex 69.54548132206254 36.08588189848087 4.000000000012402
  endloop
endfacet
facet normal -1.0 3.484778635791666e-13 1.1882819289966563e-13
  outer loop
    vertex 69.60000000000004 36.499992370644904 4.000000000012433
    vertex 69.54548132206493 36.085881898497 8.000000000012404
    vertex 69.60000000000241 36.49999237066103 8.000000000012438
  endloop
endfacet
facet normal -0.8660254037845909 0.4999999999997363 3.851251918728458e-13
  outer loop
    vertex 69.38564064605752 35.699992370661036 8.000000000012438
    vertex 69.54548132206254 36.08588189848087 4.000000000012402
    vertex 69.38564064605514 35.69999237064491 4.0000000000124345
  endloop
endfacet
facet normal -0.9659258262889837 0.25881904510283654 2.608654676461433e-13
  outer loop
    vertex 69.54548132206254 36.08588189848087 4.000000000012402
    vertex 69.38564064605752 35.699992370661036 8.000000000012438
    vertex 69.54548132206493 36.085881898497 8.000000000012404
  endloop
endfacet
facet normal -0.7071067811867163 0.7071067811863787 4.831392707232314e-13
  outer loop
    vertex 69.13137084990089 35.36862152076256 8.000000000012529
    vertex 69.38564064605514 35.69999237064491 4.0000000000124345
    vertex 69.13137084989852 35.36862152074643 4.000000000012528
  endloop
endfacet
facet normal -0.8660254037842886 0.50000000000026 3.851251918731055e-13
  outer loop
    vertex 69.38564064605514 35.69999237064491 4.0000000000124345
    vertex 69.13137084990089 35.36862152076256 8.000000000012529
    vertex 69.38564064605752 35.699992370661036 8.000000000012438
  endloop
endfacet
facet normal -0.49999999999984757 0.8660254037845267 5.482282066992706e-13
  outer loop
    vertex 68.80000000000003 35.11435172458981 4.000000000012676
    vertex 69.13137084990089 35.36862152076256 8.000000000012529
    vertex 69.13137084989852 35.36862152074643 4.000000000012528
  endloop
endfacet
facet normal -0.7071067811867163 0.7071067811863787 4.831392707232314e-13
  outer loop
    vertex 69.13137084990089 35.36862152076256 8.000000000012529
    vertex 68.80000000000003 35.11435172458981 4.000000000012676
    vertex 68.80000000000241 35.11435172460594 8.000000000012674
  endloop
endfacet
facet normal -0.2588190451024448 0.9659258262890886 5.759562963785689e-13
  outer loop
    vertex 68.41411047216408 34.9545110485824 4.000000000012871
    vertex 68.80000000000241 35.11435172460594 8.000000000012674
    vertex 68.80000000000003 35.11435172458981 4.000000000012676
  endloop
endfacet
facet normal -0.5000000000001528 0.8660254037843506 5.482282066992074e-13
  outer loop
    vertex 68.80000000000241 35.11435172460594 8.000000000012674
    vertex 68.41411047216408 34.9545110485824 4.000000000012871
    vertex 68.41411047216646 34.954511048598526 8.000000000012866
  endloop
endfacet
facet normal 4.330799409285905e-15 1.0 5.644339162724771e-13
  outer loop
    vertex 68.00000000000003 34.8999923706449 4.000000000013096
    vertex 68.41411047216646 34.954511048598526 8.000000000012866
    vertex 68.41411047216408 34.9545110485824 4.000000000012871
  endloop
endfacet
facet normal -0.2588190451026234 0.9659258262890408 5.759562963785632e-13
  outer loop
    vertex 68.41411047216646 34.954511048598526 8.000000000012866
    vertex 68.00000000000003 34.8999923706449 4.000000000013096
    vertex 68.00000000000242 34.89999237066103 8.000000000013092
  endloop
endfacet
facet normal 0.2588190451024401 0.96592582628909 5.144462975435908e-13
  outer loop
    vertex 67.585889527836 34.9545110485824 4.000000000013338
    vertex 68.00000000000242 34.89999237066103 8.000000000013092
    vertex 68.00000000000003 34.8999923706449 4.000000000013096
  endloop
endfacet
facet normal -1.2475553853901283e-16 1.0 5.644339162724775e-13
  outer loop
    vertex 68.00000000000242 34.89999237066103 8.000000000013092
    vertex 67.585889527836 34.9545110485824 4.000000000013338
    vertex 67.58588952783838 34.954511048598526 8.00000000001334
  endloop
endfacet
facet normal 0.4999999999998532 0.8660254037845234 4.294000137998353e-13
  outer loop
    vertex 67.20000000000003 35.1143517245898 4.00000000001358
    vertex 67.58588952783838 34.954511048598526 8.00000000001334
    vertex 67.585889527836 34.9545110485824 4.000000000013338
  endloop
endfacet
facet normal 0.2588190451026092 0.9659258262890447 5.144462975435452e-13
  outer loop
    vertex 67.58588952783838 34.954511048598526 8.00000000001334
    vertex 67.20000000000003 35.1143517245898 4.00000000001358
    vertex 67.20000000000242 35.11435172460593 8.000000000013577
  endloop
endfacet
facet normal 0.7071067811863674 0.7071067811867277 3.1509082873271436e-13
  outer loop
    vertex 66.86862915010157 35.36862152074643 4.000000000013806
    vertex 67.20000000000242 35.11435172460593 8.000000000013577
    vertex 67.20000000000003 35.1143517245898 4.00000000001358
  endloop
endfacet
facet normal 0.50000000000015 0.8660254037843521 4.2940001379970337e-13
  outer loop
    vertex 67.20000000000242 35.11435172460593 8.000000000013577
    vertex 66.86862915010157 35.36862152074643 4.000000000013806
    vertex 66.86862915010394 35.36862152076256 8.000000000013802
  endloop
endfacet
facet normal 0.8660254037842825 0.5000000000002706 1.7930872439967237e-13
  outer loop
    vertex 66.61435935394492 35.6999923706449 4.000000000013999
    vertex 66.86862915010394 35.36862152076256 8.000000000013802
    vertex 66.86862915010157 35.36862152074643 4.000000000013806
  endloop
endfacet
facet normal 0.7071067811867124 0.7071067811863826 3.1509082873247863e-13
  outer loop
    vertex 66.86862915010394 35.36862152076256 8.000000000013802
    vertex 66.61435935394492 35.6999923706449 4.000000000013999
    vertex 66.61435935394731 35.69999237066103 8.000000000013994
  endloop
endfacet
facet normal 0.9659258262889843 0.25881904510283454 3.13070268204496e-14
  outer loop
    vertex 66.45451867793751 36.085881898480864 4.000000000014147
    vertex 66.61435935394731 35.69999237066103 8.000000000013994
    vertex 66.61435935394492 35.6999923706449 4.000000000013999
  endloop
endfacet
facet normal 0.8660254037845826 0.4999999999997507 1.793087243993433e-13
  outer loop
    vertex 66.61435935394731 35.69999237066103 8.000000000013994
    vertex 66.45451867793751 36.085881898480864 4.000000000014147
    vertex 66.4545186779399 36.085881898497 8.000000000014152
  endloop
endfacet
facet normal 1.0 3.467401971495165e-13 -1.1882819289927322e-13
  outer loop
    vertex 66.40000000000003 36.499992370644904 4.00000000001424
    vertex 66.4545186779399 36.085881898497 8.000000000014152
    vertex 66.45451867793751 36.085881898480864 4.000000000014147
  endloop
endfacet
facet normal 0.9659258262891579 0.25881904510218645 3.1307026820063175e-14
  outer loop
    vertex 66.4545186779399 36.085881898497 8.000000000014152
    vertex 66.40000000000003 36.499992370644904 4.00000000001424
    vertex 66.40000000000242 36.49999237066103 8.000000000014243
  endloop
endfacet
facet normal 0.9659258262891578 -0.2588190451021868 -2.608654676457972e-13
  outer loop
    vertex 66.45451867793751 36.91410284280894 4.000000000014271
    vertex 66.40000000000242 36.49999237066103 8.000000000014243
    vertex 66.40000000000003 36.499992370644904 4.00000000001424
  endloop
endfacet
facet normal 1.0 -3.4841548580989534e-13 -1.188281928996656e-13
  outer loop
    vertex 66.40000000000242 36.49999237066103 8.000000000014243
    vertex 66.45451867793751 36.91410284280894 4.000000000014271
    vertex 66.4545186779399 36.914102842825066 8.000000000014277
  endloop
endfacet
facet normal 0.8660254037845909 -0.4999999999997364 -3.8512519187284587e-13
  outer loop
    vertex 66.61435935394492 37.2999923706449 4.000000000014239
    vertex 66.4545186779399 36.914102842825066 8.000000000014277
    vertex 66.45451867793751 36.91410284280894 4.000000000014271
  endloop
endfacet
facet normal 0.9659258262889838 -0.25881904510283665 -2.6086546764614336e-13
  outer loop
    vertex 66.4545186779399 36.914102842825066 8.000000000014277
    vertex 66.61435935394492 37.2999923706449 4.000000000014239
    vertex 66.61435935394731 37.29999237066103 8.000000000014243
  endloop
endfacet
facet normal 0.7071067811867197 -0.7071067811863754 -4.831392707232297e-13
  outer loop
    vertex 66.86862915010155 37.63136322054338 4.000000000014145
    vertex 66.61435935394731 37.29999237066103 8.000000000014243
    vertex 66.61435935394492 37.2999923706449 4.000000000014239
  endloop
endfacet
facet normal 0.8660254037842889 -0.5000000000002591 -3.8512519187310497e-13
  outer loop
    vertex 66.61435935394731 37.29999237066103 8.000000000014243
    vertex 66.86862915010155 37.63136322054338 4.000000000014145
    vertex 66.86862915010393 37.63136322055951 8.000000000014142
  endloop
endfacet
facet normal 0.49999999999984185 -0.86602540378453 -5.482282066992718e-13
  outer loop
    vertex 67.20000000000242 37.885633016716135 8.000000000013994
    vertex 66.86862915010155 37.63136322054338 4.000000000014145
    vertex 67.20000000000003 37.885633016700005 4.000000000013998
  endloop
endfacet
facet normal 0.7071067811867197 -0.7071067811863754 -4.831392707232297e-13
  outer loop
    vertex 66.86862915010155 37.63136322054338 4.000000000014145
    vertex 67.20000000000242 37.885633016716135 8.000000000013994
    vertex 66.86862915010393 37.63136322055951 8.000000000014142
  endloop
endfacet
facet normal 0.25881904510243514 -0.9659258262890914 -5.759562963785692e-13
  outer loop
    vertex 67.58588952783838 38.04547369272354 8.000000000013802
    vertex 67.20000000000003 37.885633016700005 4.000000000013998
    vertex 67.585889527836 38.04547369270741 4.000000000013803
  endloop
endfacet
facet normal 0.5000000000001471 -0.8660254037843538 -5.482282066992085e-13
  outer loop
    vertex 67.20000000000003 37.885633016700005 4.000000000013998
    vertex 67.58588952783838 38.04547369272354 8.000000000013802
    vertex 67.20000000000242 37.885633016716135 8.000000000013994
  endloop
endfacet
facet normal -3.0475995843122933e-15 -1.0 -5.644339162724773e-13
  outer loop
    vertex 68.00000000000242 38.099992370661035 8.000000000013577
    vertex 67.585889527836 38.04547369270741 4.000000000013803
    vertex 68.00000000000003 38.099992370644905 4.000000000013578
  endloop
endfacet
facet normal 0.25881904510261383 -0.9659258262890434 -5.759562963785635e-13
  outer loop
    vertex 67.585889527836 38.04547369270741 4.000000000013803
    vertex 68.00000000000242 38.099992370661035 8.000000000013577
    vertex 67.58588952783838 38.04547369272354 8.000000000013802
  endloop
endfacet
facet normal 2.4670498911217754e-13 -1.0 -4.195761862589214e-13
  outer loop
    vertex 72.00000000000242 28.499992370661033 8.000000000021261
    vertex 57.50000000000002 28.4999923706449 4.000000000032364
    vertex 72.00000000000004 28.4999923706449 4.000000000021257
  endloop
endfacet
facet normal 2.4670498911217754e-13 -1.0 -4.195761862589214e-13
  outer loop
    vertex 57.50000000000002 28.4999923706449 4.000000000032364
    vertex 72.00000000000242 28.499992370661033 8.000000000021261
    vertex 64.00000000000243 28.499992370661033 8.00000000002267
  endloop
endfacet
facet normal 2.4670498911217754e-13 -1.0 -4.195761862589214e-13
  outer loop
    vertex 57.50000000000002 28.4999923706449 4.000000000032364
    vertex 64.00000000000243 28.499992370661033 8.00000000002267
    vertex 57.50000000000216 28.499992370634327 43.00000000003237
  endloop
endfacet
facet normal 2.4670498911217754e-13 -1.0 -4.195761862589214e-13
  outer loop
    vertex 57.50000000000216 28.499992370634327 43.00000000003237
    vertex 64.00000000000243 28.499992370661033 8.00000000002267
    vertex 60.000000000004924 28.49999237062176 45.000000000022936
  endloop
endfacet
facet normal 2.4670498911217754e-13 -1.0 -4.195761862589214e-13
  outer loop
    vertex 57.50000000000216 28.499992370634327 43.00000000003237
    vertex 60.000000000004924 28.49999237062176 45.000000000022936
    vertex 18.500000000002164 28.499992370634327 43.00000000003665
  endloop
endfacet
facet normal 2.4670498911217754e-13 -1.0 -4.195761862589214e-13
  outer loop
    vertex 18.50000000000002 28.4999923706449 4.000000000036645
    vertex 12.000000000002672 28.49999237062396 8.000000000036945
    vertex 3.9999999999999996 28.4999923706449 4.000000000038368
  endloop
endfacet
facet normal 2.4670498911217754e-13 -1.0 -4.195761862589214e-13
  outer loop
    vertex 12.000000000002672 28.49999237062396 8.000000000036945
    vertex 18.50000000000002 28.4999923706449 4.000000000036645
    vertex 18.500000000002164 28.499992370634327 43.00000000003665
  endloop
endfacet
facet normal 2.4670498911217754e-13 -1.0 -4.195761862589214e-13
  outer loop
    vertex 12.000000000002672 28.49999237062396 8.000000000036945
    vertex 18.500000000002164 28.499992370634327 43.00000000003665
    vertex 16.000000000004867 28.49999237062176 45.00000000003695
  endloop
endfacet
facet normal 2.4670498911217754e-13 -1.0 -4.195761862589214e-13
  outer loop
    vertex 16.000000000004867 28.49999237062176 45.00000000003695
    vertex 18.500000000002164 28.499992370634327 43.00000000003665
    vertex 60.000000000004924 28.49999237062176 45.000000000022936
  endloop
endfacet
facet normal 2.4670498911217754e-13 -1.0 -4.195761862589214e-13
  outer loop
    vertex 4.000000000002673 28.49999237062396 8.00000000003837
    vertex 3.9999999999999996 28.4999923706449 4.000000000038368
    vertex 12.000000000002672 28.49999237062396 8.000000000036945
  endloop
endfacet
facet normal 1.0 1.3414132456365733e-25 -1.188281928994689e-13
  outer loop
    vertex 72.00000000000004 44.499992370644904 4.000000000039319
    vertex 72.00000000000242 28.499992370661033 8.000000000021261
    vertex 72.00000000000004 28.4999923706449 4.000000000021257
  endloop
endfacet
facet normal 1.0 1.3414132456365733e-25 -1.188281928994689e-13
  outer loop
    vertex 72.00000000000242 28.499992370661033 8.000000000021261
    vertex 72.00000000000004 44.499992370644904 4.000000000039319
    vertex 72.00000000000242 44.49999237066103 8.00000000003932
  endloop
endfacet
facet normal -2.467049891122739e-13 1.0 4.195761862589339e-13
  outer loop
    vertex 4.000000000002673 44.49999237062396 8.00000000003837
    vertex 18.50000000000002 44.499992370644904 4.000000000038844
    vertex 3.9999999999999996 44.499992370644904 4.000000000038368
  endloop
endfacet
facet normal -2.467049891122739e-13 1.0 4.195761862589339e-13
  outer loop
    vertex 18.50000000000002 44.499992370644904 4.000000000038844
    vertex 4.000000000002673 44.49999237062396 8.00000000003837
    vertex 12.000000000002675 44.49999237062396 8.000000000038844
  endloop
endfacet
facet normal -2.467049891122739e-13 1.0 4.195761862589339e-13
  outer loop
    vertex 18.50000000000002 44.499992370644904 4.000000000038844
    vertex 12.000000000002675 44.49999237062396 8.000000000038844
    vertex 18.50000000000216 44.499992370634324 43.000000000038845
  endloop
endfacet
facet normal -2.467049891122739e-13 1.0 4.195761862589339e-13
  outer loop
    vertex 18.50000000000216 44.499992370634324 43.000000000038845
    vertex 12.000000000002675 44.49999237062396 8.000000000038844
    vertex 16.00000000000487 44.49999237062176 45.000000000038845
  endloop
endfacet
facet normal -2.467049891122739e-13 1.0 4.195761862589339e-13
  outer loop
    vertex 18.50000000000216 44.499992370634324 43.000000000038845
    vertex 16.00000000000487 44.49999237062176 45.000000000038845
    vertex 57.50000000000216 44.499992370634324 43.000000000038845
  endloop
endfacet
facet normal -2.467049891122739e-13 1.0 4.195761862589339e-13
  outer loop
    vertex 57.50000000000002 44.499992370644904 4.000000000038844
    vertex 64.00000000000243 44.49999237066103 8.000000000038575
    vertex 72.00000000000004 44.499992370644904 4.000000000039319
  endloop
endfacet
facet normal -2.467049891122739e-13 1.0 4.195761862589339e-13
  outer loop
    vertex 64.00000000000243 44.49999237066103 8.000000000038575
    vertex 57.50000000000002 44.499992370644904 4.000000000038844
    vertex 57.50000000000216 44.499992370634324 43.000000000038845
  endloop
endfacet
facet normal -2.467049891122739e-13 1.0 4.195761862589339e-13
  outer loop
    vertex 64.00000000000243 44.49999237066103 8.000000000038575
    vertex 57.50000000000216 44.499992370634324 43.000000000038845
    vertex 60.000000000004924 44.49999237062176 45.000000000038845
  endloop
endfacet
facet normal -2.467049891122739e-13 1.0 4.195761862589339e-13
  outer loop
    vertex 60.000000000004924 44.49999237062176 45.000000000038845
    vertex 57.50000000000216 44.499992370634324 43.000000000038845
    vertex 16.00000000000487 44.49999237062176 45.000000000038845
  endloop
endfacet
facet normal -2.467049891122739e-13 1.0 4.195761862589339e-13
  outer loop
    vertex 72.00000000000242 44.49999237066103 8.00000000003932
    vertex 72.00000000000004 44.499992370644904 4.000000000039319
    vertex 64.00000000000243 44.49999237066103 8.000000000038575
  endloop
endfacet
facet normal -1.0 0.0 1.188281928994689e-13
  outer loop
    vertex 4.000000000002673 44.49999237062396 8.00000000003837
    vertex 3.9999999999999996 28.4999923706449 4.000000000038368
    vertex 4.000000000002673 28.49999237062396 8.00000000003837
  endloop
endfacet
facet normal -1.0 0.0 1.188281928994689e-13
  outer loop
    vertex 3.9999999999999996 28.4999923706449 4.000000000038368
    vertex 4.000000000002673 44.49999237062396 8.00000000003837
    vertex 3.9999999999999996 44.499992370644904 4.000000000038368
  endloop
endfacet
facet normal -3.130543872179858e-13 7.668986973241586e-13 -1.0
  outer loop
    vertex 72.00000000000004 44.499992370644904 4.000000000039319
    vertex 57.50000000000002 28.4999923706449 4.000000000032364
    vertex 57.50000000000002 44.499992370644904 4.000000000038844
  endloop
endfacet
facet normal -3.130543872179858e-13 7.668986973241586e-13 -1.0
  outer loop
    vertex 57.50000000000002 28.4999923706449 4.000000000032364
    vertex 72.00000000000004 44.499992370644904 4.000000000039319
    vertex 66.61435935394492 37.2999923706449 4.000000000014239
  endloop
endfacet
facet normal -3.130543872179858e-13 7.668986973241586e-13 -1.0
  outer loop
    vertex 57.50000000000002 28.4999923706449 4.000000000032364
    vertex 66.61435935394492 37.2999923706449 4.000000000014239
    vertex 66.45451867793751 36.91410284280894 4.000000000014271
  endloop
endfacet
facet normal -3.130543872179858e-13 7.668986973241586e-13 -1.0
  outer loop
    vertex 57.50000000000002 28.4999923706449 4.000000000032364
    vertex 66.45451867793751 36.91410284280894 4.000000000014271
    vertex 66.40000000000003 36.499992370644904 4.00000000001424
  endloop
endfacet
facet normal -3.130543872179858e-13 7.668986973241586e-13 -1.0
  outer loop
    vertex 66.61435935394492 37.2999923706449 4.000000000014239
    vertex 72.00000000000004 44.499992370644904 4.000000000039319
    vertex 66.86862915010155 37.63136322054338 4.000000000014145
  endloop
endfacet
facet normal -3.130543872179858e-13 7.668986973241586e-13 -1.0
  outer loop
    vertex 66.86862915010155 37.63136322054338 4.000000000014145
    vertex 72.00000000000004 44.499992370644904 4.000000000039319
    vertex 67.20000000000003 37.885633016700005 4.000000000013998
  endloop
endfacet
facet normal -3.130543872179858e-13 7.668986973241586e-13 -1.0
  outer loop
    vertex 67.20000000000003 37.885633016700005 4.000000000013998
    vertex 72.00000000000004 44.499992370644904 4.000000000039319
    vertex 67.585889527836 38.04547369270741 4.000000000013803
  endloop
endfacet
facet normal -3.130543872179858e-13 7.668986973241586e-13 -1.0
  outer loop
    vertex 67.585889527836 38.04547369270741 4.000000000013803
    vertex 72.00000000000004 44.499992370644904 4.000000000039319
    vertex 68.00000000000003 38.099992370644905 4.000000000013578
  endloop
endfacet
facet normal -3.130543872179858e-13 7.668986973241586e-13 -1.0
  outer loop
    vertex 68.00000000000003 38.099992370644905 4.000000000013578
    vertex 72.00000000000004 44.499992370644904 4.000000000039319
    vertex 68.41411047216407 38.04547369270741 4.000000000013335
  endloop
endfacet
facet normal -3.130543872179858e-13 7.668986973241586e-13 -1.0
  outer loop
    vertex 68.41411047216407 38.04547369270741 4.000000000013335
    vertex 72.00000000000004 44.499992370644904 4.000000000039319
    vertex 68.80000000000003 37.885633016700005 4.0000000000130935
  endloop
endfacet
facet normal -3.130543872179858e-13 7.668986973241586e-13 -1.0
  outer loop
    vertex 68.80000000000003 37.885633016700005 4.0000000000130935
    vertex 72.00000000000004 44.499992370644904 4.000000000039319
    vertex 69.1313708498985 37.63136322054338 4.000000000012868
  endloop
endfacet
facet normal -3.130543872179858e-13 7.668986973241586e-13 -1.0
  outer loop
    vertex 69.1313708498985 37.63136322054338 4.000000000012868
    vertex 72.00000000000004 44.499992370644904 4.000000000039319
    vertex 69.38564064605514 37.29999237064491 4.000000000012675
  endloop
endfacet
facet normal -3.130543872179858e-13 7.668986973241586e-13 -1.0
  outer loop
    vertex 69.38564064605514 37.29999237064491 4.000000000012675
    vertex 72.00000000000004 44.499992370644904 4.000000000039319
    vertex 69.54548132206254 36.914102842808944 4.000000000012527
  endloop
endfacet
facet normal -3.130543872179858e-13 7.668986973241586e-13 -1.0
  outer loop
    vertex 69.54548132206254 36.914102842808944 4.000000000012527
    vertex 72.00000000000004 44.499992370644904 4.000000000039319
    vertex 69.60000000000004 36.499992370644904 4.000000000012433
  endloop
endfacet
facet normal -3.130543872179858e-13 7.668986973241586e-13 -1.0
  outer loop
    vertex 57.50000000000002 28.4999923706449 4.000000000032364
    vertex 66.61435935394492 35.6999923706449 4.000000000013999
    vertex 72.00000000000004 28.4999923706449 4.000000000021257
  endloop
endfacet
facet normal -3.130543872179858e-13 7.668986973241586e-13 -1.0
  outer loop
    vertex 66.61435935394492 35.6999923706449 4.000000000013999
    vertex 57.50000000000002 28.4999923706449 4.000000000032364
    vertex 66.45451867793751 36.085881898480864 4.000000000014147
  endloop
endfacet
facet normal -3.130543872179858e-13 7.668986973241586e-13 -1.0
  outer loop
    vertex 66.45451867793751 36.085881898480864 4.000000000014147
    vertex 57.50000000000002 28.4999923706449 4.000000000032364
    vertex 66.40000000000003 36.499992370644904 4.00000000001424
  endloop
endfacet
facet normal -3.130543872179858e-13 7.668986973241586e-13 -1.0
  outer loop
    vertex 72.00000000000004 28.4999923706449 4.000000000021257
    vertex 66.61435935394492 35.6999923706449 4.000000000013999
    vertex 66.86862915010157 35.36862152074643 4.000000000013806
  endloop
endfacet
facet normal -3.130543872179858e-13 7.668986973241586e-13 -1.0
  outer loop
    vertex 72.00000000000004 28.4999923706449 4.000000000021257
    vertex 66.86862915010157 35.36862152074643 4.000000000013806
    vertex 67.20000000000003 35.1143517245898 4.00000000001358
  endloop
endfacet
facet normal -3.130543872179858e-13 7.668986973241586e-13 -1.0
  outer loop
    vertex 72.00000000000004 28.4999923706449 4.000000000021257
    vertex 67.20000000000003 35.1143517245898 4.00000000001358
    vertex 67.585889527836 34.9545110485824 4.000000000013338
  endloop
endfacet
facet normal -3.130543872179858e-13 7.668986973241586e-13 -1.0
  outer loop
    vertex 72.00000000000004 28.4999923706449 4.000000000021257
    vertex 67.585889527836 34.9545110485824 4.000000000013338
    vertex 68.00000000000003 34.8999923706449 4.000000000013096
  endloop
endfacet
facet normal -3.130543872179858e-13 7.668986973241586e-13 -1.0
  outer loop
    vertex 72.00000000000004 28.4999923706449 4.000000000021257
    vertex 68.00000000000003 34.8999923706449 4.000000000013096
    vertex 68.41411047216408 34.9545110485824 4.000000000012871
  endloop
endfacet
facet normal -3.130543872179858e-13 7.668986973241586e-13 -1.0
  outer loop
    vertex 72.00000000000004 28.4999923706449 4.000000000021257
    vertex 68.41411047216408 34.9545110485824 4.000000000012871
    vertex 68.80000000000003 35.11435172458981 4.000000000012676
  endloop
endfacet
facet normal -3.130543872179858e-13 7.668986973241586e-13 -1.0
  outer loop
    vertex 72.00000000000004 28.4999923706449 4.000000000021257
    vertex 68.80000000000003 35.11435172458981 4.000000000012676
    vertex 69.13137084989852 35.36862152074643 4.000000000012528
  endloop
endfacet
facet normal -3.130543872179858e-13 7.668986973241586e-13 -1.0
  outer loop
    vertex 72.00000000000004 28.4999923706449 4.000000000021257
    vertex 69.13137084989852 35.36862152074643 4.000000000012528
    vertex 69.38564064605514 35.69999237064491 4.0000000000124345
  endloop
endfacet
facet normal -3.130543872179858e-13 7.668986973241586e-13 -1.0
  outer loop
    vertex 72.00000000000004 28.4999923706449 4.000000000021257
    vertex 69.38564064605514 35.69999237064491 4.0000000000124345
    vertex 69.54548132206254 36.08588189848087 4.000000000012402
  endloop
endfacet
facet normal -3.130543872179858e-13 7.668986973241586e-13 -1.0
  outer loop
    vertex 72.00000000000004 28.4999923706449 4.000000000021257
    vertex 69.54548132206254 36.08588189848087 4.000000000012402
    vertex 69.60000000000004 36.499992370644904 4.000000000012433
  endloop
endfacet
facet normal -3.130543872179858e-13 7.668986973241586e-13 -1.0
  outer loop
    vertex 72.00000000000004 28.4999923706449 4.000000000021257
    vertex 69.60000000000004 36.499992370644904 4.000000000012433
    vertex 72.00000000000004 44.499992370644904 4.000000000039319
  endloop
endfacet
facet normal -5.488088616035524e-14 2.711574020874963e-13 -1.0
  outer loop
    vertex 57.50000000000216 44.499992370634324 43.000000000038845
    vertex 18.500000000002164 28.499992370634327 43.00000000003665
    vertex 18.50000000000216 44.499992370634324 43.000000000038845
  endloop
endfacet
facet normal -5.488088616035524e-14 2.711574020874963e-13 -1.0
  outer loop
    vertex 18.500000000002164 28.499992370634327 43.00000000003665
    vertex 57.50000000000216 44.499992370634324 43.000000000038845
    vertex 57.50000000000216 28.499992370634327 43.00000000003237
  endloop
endfacet
facet normal -1.0 -2.222289320075712e-26 5.488088616035525e-14
  outer loop
    vertex 57.50000000000216 44.499992370634324 43.000000000038845
    vertex 57.50000000000002 28.4999923706449 4.000000000032364
    vertex 57.50000000000216 28.499992370634327 43.00000000003237
  endloop
endfacet
facet normal -1.0 -2.222289320075712e-26 5.488088616035525e-14
  outer loop
    vertex 57.50000000000002 28.4999923706449 4.000000000032364
    vertex 57.50000000000216 44.499992370634324 43.000000000038845
    vertex 57.50000000000002 44.499992370644904 4.000000000038844
  endloop
endfacet
facet normal 1.0 1.7624790516678345e-16 -5.48808861603552e-14
  outer loop
    vertex 18.50000000000002 28.4999923706449 4.000000000036645
    vertex 18.50000000000216 44.499992370634324 43.000000000038845
    vertex 18.500000000002164 28.499992370634327 43.00000000003665
  endloop
endfacet
facet normal 1.0 1.7624790516678345e-16 -5.48808861603552e-14
  outer loop
    vertex 18.50000000000216 44.499992370634324 43.000000000038845
    vertex 18.50000000000002 28.4999923706449 4.000000000036645
    vertex 18.50000000000002 44.499992370644904 4.000000000038844
  endloop
endfacet
facet normal 1.591358358219641e-13 -5.56414636587732e-13 1.0
  outer loop
    vertex 60.000000000004924 28.49999237062176 45.000000000022936
    vertex 16.00000000000487 44.49999237062176 45.000000000038845
    vertex 16.000000000004867 28.49999237062176 45.00000000003695
  endloop
endfacet
facet normal 1.591358358219641e-13 -5.56414636587732e-13 1.0
  outer loop
    vertex 16.00000000000487 44.49999237062176 45.000000000038845
    vertex 60.000000000004924 28.49999237062176 45.000000000022936
    vertex 60.000000000004924 44.49999237062176 45.000000000038845
  endloop
endfacet
facet normal 6.732669977083113e-14 -1.061364884868965e-12 1.0
  outer loop
    vertex 64.00000000000243 28.499992370661033 8.00000000002267
    vertex 66.4545186779399 36.085881898497 8.000000000014152
    vertex 64.00000000000243 44.49999237066103 8.000000000038575
  endloop
endfacet
facet normal 6.732669977083113e-14 -1.061364884868965e-12 1.0
  outer loop
    vertex 66.4545186779399 36.085881898497 8.000000000014152
    vertex 64.00000000000243 28.499992370661033 8.00000000002267
    vertex 66.61435935394731 35.69999237066103 8.000000000013994
  endloop
endfacet
facet normal 6.732669977083113e-14 -1.061364884868965e-12 1.0
  outer loop
    vertex 66.61435935394731 35.69999237066103 8.000000000013994
    vertex 64.00000000000243 28.499992370661033 8.00000000002267
    vertex 72.00000000000242 28.499992370661033 8.000000000021261
  endloop
endfacet
facet normal 6.732669977083113e-14 -1.061364884868965e-12 1.0
  outer loop
    vertex 64.00000000000243 44.49999237066103 8.000000000038575
    vertex 66.4545186779399 36.085881898497 8.000000000014152
    vertex 66.40000000000242 36.49999237066103 8.000000000014243
  endloop
endfacet
facet normal 6.732669977083113e-14 -1.061364884868965e-12 1.0
  outer loop
    vertex 66.61435935394731 35.69999237066103 8.000000000013994
    vertex 72.00000000000242 28.499992370661033 8.000000000021261
    vertex 66.86862915010394 35.36862152076256 8.000000000013802
  endloop
endfacet
facet normal 6.732669977083113e-14 -1.061364884868965e-12 1.0
  outer loop
    vertex 66.86862915010394 35.36862152076256 8.000000000013802
    vertex 72.00000000000242 28.499992370661033 8.000000000021261
    vertex 67.20000000000242 35.11435172460593 8.000000000013577
  endloop
endfacet
facet normal 6.732669977083113e-14 -1.061364884868965e-12 1.0
  outer loop
    vertex 67.20000000000242 35.11435172460593 8.000000000013577
    vertex 72.00000000000242 28.499992370661033 8.000000000021261
    vertex 67.58588952783838 34.954511048598526 8.00000000001334
  endloop
endfacet
facet normal 6.732669977083113e-14 -1.061364884868965e-12 1.0
  outer loop
    vertex 67.58588952783838 34.954511048598526 8.00000000001334
    vertex 72.00000000000242 28.499992370661033 8.000000000021261
    vertex 68.00000000000242 34.89999237066103 8.000000000013092
  endloop
endfacet
facet normal 6.732669977083113e-14 -1.061364884868965e-12 1.0
  outer loop
    vertex 68.00000000000242 34.89999237066103 8.000000000013092
    vertex 72.00000000000242 28.499992370661033 8.000000000021261
    vertex 68.41411047216646 34.954511048598526 8.000000000012866
  endloop
endfacet
facet normal 6.732669977083113e-14 -1.061364884868965e-12 1.0
  outer loop
    vertex 68.41411047216646 34.954511048598526 8.000000000012866
    vertex 72.00000000000242 28.499992370661033 8.000000000021261
    vertex 68.80000000000241 35.11435172460594 8.000000000012674
  endloop
endfacet
facet normal 6.732669977083113e-14 -1.061364884868965e-12 1.0
  outer loop
    vertex 68.80000000000241 35.11435172460594 8.000000000012674
    vertex 72.00000000000242 28.499992370661033 8.000000000021261
    vertex 69.13137084990089 35.36862152076256 8.000000000012529
  endloop
endfacet
facet normal 6.732669977083113e-14 -1.061364884868965e-12 1.0
  outer loop
    vertex 69.13137084990089 35.36862152076256 8.000000000012529
    vertex 72.00000000000242 28.499992370661033 8.000000000021261
    vertex 69.38564064605752 35.699992370661036 8.000000000012438
  endloop
endfacet
facet normal 6.732669977083113e-14 -1.061364884868965e-12 1.0
  outer loop
    vertex 69.38564064605752 35.699992370661036 8.000000000012438
    vertex 72.00000000000242 28.499992370661033 8.000000000021261
    vertex 69.54548132206493 36.085881898497 8.000000000012404
  endloop
endfacet
facet normal 6.732669977083113e-14 -1.061364884868965e-12 1.0
  outer loop
    vertex 69.54548132206493 36.085881898497 8.000000000012404
    vertex 72.00000000000242 28.499992370661033 8.000000000021261
    vertex 69.60000000000241 36.49999237066103 8.000000000012438
  endloop
endfacet
facet normal 6.732669977083113e-14 -1.061364884868965e-12 1.0
  outer loop
    vertex 64.00000000000243 44.49999237066103 8.000000000038575
    vertex 66.61435935394731 37.29999237066103 8.000000000014243
    vertex 72.00000000000242 44.49999237066103 8.00000000003932
  endloop
endfacet
facet normal 6.732669977083113e-14 -1.061364884868965e-12 1.0
  outer loop
    vertex 66.61435935394731 37.29999237066103 8.000000000014243
    vertex 64.00000000000243 44.49999237066103 8.000000000038575
    vertex 66.4545186779399 36.914102842825066 8.000000000014277
  endloop
endfacet
facet normal 6.732669977083113e-14 -1.061364884868965e-12 1.0
  outer loop
    vertex 66.4545186779399 36.914102842825066 8.000000000014277
    vertex 64.00000000000243 44.49999237066103 8.000000000038575
    vertex 66.40000000000242 36.49999237066103 8.000000000014243
  endloop
endfacet
facet normal 6.732669977083113e-14 -1.061364884868965e-12 1.0
  outer loop
    vertex 72.00000000000242 44.49999237066103 8.00000000003932
    vertex 66.61435935394731 37.29999237066103 8.000000000014243
    vertex 66.86862915010393 37.63136322055951 8.000000000014142
  endloop
endfacet
facet normal 6.732669977083113e-14 -1.061364884868965e-12 1.0
  outer loop
    vertex 72.00000000000242 44.49999237066103 8.00000000003932
    vertex 66.86862915010393 37.63136322055951 8.000000000014142
    vertex 67.20000000000242 37.885633016716135 8.000000000013994
  endloop
endfacet
facet normal 6.732669977083113e-14 -1.061364884868965e-12 1.0
  outer loop
    vertex 72.00000000000242 44.49999237066103 8.00000000003932
    vertex 67.20000000000242 37.885633016716135 8.000000000013994
    vertex 67.58588952783838 38.04547369272354 8.000000000013802
  endloop
endfacet
facet normal 6.732669977083113e-14 -1.061364884868965e-12 1.0
  outer loop
    vertex 72.00000000000242 44.49999237066103 8.00000000003932
    vertex 67.58588952783838 38.04547369272354 8.000000000013802
    vertex 68.00000000000242 38.099992370661035 8.000000000013577
  endloop
endfacet
facet normal 6.732669977083113e-14 -1.061364884868965e-12 1.0
  outer loop
    vertex 72.00000000000242 44.49999237066103 8.00000000003932
    vertex 68.00000000000242 38.099992370661035 8.000000000013577
    vertex 68.41411047216644 38.04547369272354 8.00000000001334
  endloop
endfacet
facet normal 6.732669977083113e-14 -1.061364884868965e-12 1.0
  outer loop
    vertex 72.00000000000242 44.49999237066103 8.00000000003932
    vertex 68.41411047216644 38.04547369272354 8.00000000001334
    vertex 68.80000000000241 37.885633016716135 8.000000000013092
  endloop
endfacet
facet normal 6.732669977083113e-14 -1.061364884868965e-12 1.0
  outer loop
    vertex 72.00000000000242 44.49999237066103 8.00000000003932
    vertex 68.80000000000241 37.885633016716135 8.000000000013092
    vertex 69.13137084990089 37.63136322055951 8.000000000012866
  endloop
endfacet
facet normal 6.732669977083113e-14 -1.061364884868965e-12 1.0
  outer loop
    vertex 72.00000000000242 44.49999237066103 8.00000000003932
    vertex 69.13137084990089 37.63136322055951 8.000000000012866
    vertex 69.38564064605752 37.29999237066104 8.000000000012674
  endloop
endfacet
facet normal 6.732669977083113e-14 -1.061364884868965e-12 1.0
  outer loop
    vertex 72.00000000000242 44.49999237066103 8.00000000003932
    vertex 69.38564064605752 37.29999237066104 8.000000000012674
    vertex 69.54548132206493 36.91410284282507 8.000000000012529
  endloop
endfacet
facet normal 6.732669977083113e-14 -1.061364884868965e-12 1.0
  outer loop
    vertex 72.00000000000242 44.49999237066103 8.00000000003932
    vertex 69.54548132206493 36.91410284282507 8.000000000012529
    vertex 69.60000000000241 36.49999237066103 8.000000000012438
  endloop
endfacet
facet normal 6.732669977083113e-14 -1.061364884868965e-12 1.0
  outer loop
    vertex 72.00000000000242 44.49999237066103 8.00000000003932
    vertex 69.60000000000241 36.49999237066103 8.000000000012438
    vertex 72.00000000000242 28.499992370661033 8.000000000021261
  endloop
endfacet
facet normal 0.9942070475658565 -1.0682819160098189e-13 0.10748184298002496
  outer loop
    vertex 64.00000000000243 28.499992370661033 8.00000000002267
    vertex 60.000000000004924 44.49999237062176 45.000000000038845
    vertex 60.000000000004924 28.49999237062176 45.000000000022936
  endloop
endfacet
facet normal 0.9942070475658565 -1.0682819160098189e-13 0.10748184298002496
  outer loop
    vertex 60.000000000004924 44.49999237062176 45.000000000038845
    vertex 64.00000000000243 28.499992370661033 8.00000000002267
    vertex 64.00000000000243 44.49999237066103 8.000000000038575
  endloop
endfacet
facet normal 7.91940587182201e-14 -5.939554403866511e-14 1.0
  outer loop
    vertex 4.000000000002673 28.49999237062396 8.00000000003837
    vertex 6.454518677940159 36.08588189845993 8.000000000011593
    vertex 4.000000000002673 44.49999237062396 8.00000000003837
  endloop
endfacet
facet normal 7.91940587182201e-14 -5.939554403866511e-14 1.0
  outer loop
    vertex 6.454518677940159 36.08588189845993 8.000000000011593
    vertex 4.000000000002673 28.49999237062396 8.00000000003837
    vertex 6.614359353947567 35.69999237062397 8.00000000001087
  endloop
endfacet
facet normal 7.91940587182201e-14 -5.939554403866511e-14 1.0
  outer loop
    vertex 6.614359353947567 35.69999237062397 8.00000000001087
    vertex 4.000000000002673 28.49999237062396 8.00000000003837
    vertex 12.000000000002672 28.49999237062396 8.000000000036945
  endloop
endfacet
facet normal 7.91940587182201e-14 -5.939554403866511e-14 1.0
  outer loop
    vertex 4.000000000002673 44.49999237062396 8.00000000003837
    vertex 6.454518677940159 36.08588189845993 8.000000000011593
    vertex 6.40000000000267 36.499992370623964 8.000000000012438
  endloop
endfacet
facet normal 7.91940587182201e-14 -5.939554403866511e-14 1.0
  outer loop
    vertex 6.614359353947567 35.69999237062397 8.00000000001087
    vertex 12.000000000002672 28.49999237062396 8.000000000036945
    vertex 6.868629150104193 35.36862152072549 8.000000000010317
  endloop
endfacet
facet normal 7.91940587182201e-14 -5.939554403866511e-14 1.0
  outer loop
    vertex 6.868629150104193 35.36862152072549 8.000000000010317
    vertex 12.000000000002672 28.49999237062396 8.000000000036945
    vertex 7.200000000002668 35.11435172456886 8.000000000009967
  endloop
endfacet
facet normal 7.91940587182201e-14 -5.939554403866511e-14 1.0
  outer loop
    vertex 7.200000000002668 35.11435172456886 8.000000000009967
    vertex 12.000000000002672 28.49999237062396 8.000000000036945
    vertex 7.585889527838635 34.95451104856146 8.000000000009845
  endloop
endfacet
facet normal 7.91940587182201e-14 -5.939554403866511e-14 1.0
  outer loop
    vertex 7.585889527838635 34.95451104856146 8.000000000009845
    vertex 12.000000000002672 28.49999237062396 8.000000000036945
    vertex 8.000000000002668 34.89999237062396 8.000000000009967
  endloop
endfacet
facet normal 7.91940587182201e-14 -5.939554403866511e-14 1.0
  outer loop
    vertex 8.000000000002668 34.89999237062396 8.000000000009967
    vertex 12.000000000002672 28.49999237062396 8.000000000036945
    vertex 8.414110472166701 34.95451104856146 8.000000000010317
  endloop
endfacet
facet normal 7.91940587182201e-14 -5.939554403866511e-14 1.0
  outer loop
    vertex 8.414110472166701 34.95451104856146 8.000000000010317
    vertex 12.000000000002672 28.49999237062396 8.000000000036945
    vertex 8.800000000002667 35.114351724568856 8.00000000001087
  endloop
endfacet
facet normal 7.91940587182201e-14 -5.939554403866511e-14 1.0
  outer loop
    vertex 8.800000000002667 35.114351724568856 8.00000000001087
    vertex 12.000000000002672 28.49999237062396 8.000000000036945
    vertex 9.131370849901145 35.36862152072548 8.000000000011593
  endloop
endfacet
facet normal 7.91940587182201e-14 -5.939554403866511e-14 1.0
  outer loop
    vertex 9.131370849901145 35.36862152072548 8.000000000011593
    vertex 12.000000000002672 28.49999237062396 8.000000000036945
    vertex 9.385640646057771 35.69999237062397 8.000000000012438
  endloop
endfacet
facet normal 7.91940587182201e-14 -5.939554403866511e-14 1.0
  outer loop
    vertex 9.385640646057771 35.69999237062397 8.000000000012438
    vertex 12.000000000002672 28.49999237062396 8.000000000036945
    vertex 9.54548132206518 36.08588189845993 8.00000000001334
  endloop
endfacet
facet normal 7.91940587182201e-14 -5.939554403866511e-14 1.0
  outer loop
    vertex 9.54548132206518 36.08588189845993 8.00000000001334
    vertex 12.000000000002672 28.49999237062396 8.000000000036945
    vertex 9.60000000000267 36.49999237062397 8.000000000014243
  endloop
endfacet
facet normal 7.91940587182201e-14 -5.939554403866511e-14 1.0
  outer loop
    vertex 4.000000000002673 44.49999237062396 8.00000000003837
    vertex 6.6143593539475685 37.29999237062396 8.000000000014243
    vertex 12.000000000002675 44.49999237062396 8.000000000038844
  endloop
endfacet
facet normal 7.91940587182201e-14 -5.939554403866511e-14 1.0
  outer loop
    vertex 6.6143593539475685 37.29999237062396 8.000000000014243
    vertex 4.000000000002673 44.49999237062396 8.00000000003837
    vertex 6.454518677940161 36.914102842788 8.00000000001334
  endloop
endfacet
facet normal 7.91940587182201e-14 -5.939554403866511e-14 1.0
  outer loop
    vertex 6.454518677940161 36.914102842788 8.00000000001334
    vertex 4.000000000002673 44.49999237062396 8.00000000003837
    vertex 6.40000000000267 36.499992370623964 8.000000000012438
  endloop
endfacet
facet normal 7.91940587182201e-14 -5.939554403866511e-14 1.0
  outer loop
    vertex 12.000000000002675 44.49999237062396 8.000000000038844
    vertex 6.6143593539475685 37.29999237062396 8.000000000014243
    vertex 6.868629150104196 37.631363220522445 8.000000000015078
  endloop
endfacet
facet normal 7.91940587182201e-14 -5.939554403866511e-14 1.0
  outer loop
    vertex 12.000000000002675 44.49999237062396 8.000000000038844
    vertex 6.868629150104196 37.631363220522445 8.000000000015078
    vertex 7.200000000002673 37.88563301667907 8.000000000015799
  endloop
endfacet
facet normal 7.91940587182201e-14 -5.939554403866511e-14 1.0
  outer loop
    vertex 12.000000000002675 44.49999237062396 8.000000000038844
    vertex 7.200000000002673 37.88563301667907 8.000000000015799
    vertex 7.585889527838639 38.04547369268647 8.000000000016364
  endloop
endfacet
facet normal 7.91940587182201e-14 -5.939554403866511e-14 1.0
  outer loop
    vertex 12.000000000002675 44.49999237062396 8.000000000038844
    vertex 7.585889527838639 38.04547369268647 8.000000000016364
    vertex 8.000000000002673 38.099992370623966 8.000000000016701
  endloop
endfacet
facet normal 7.91940587182201e-14 -5.939554403866511e-14 1.0
  outer loop
    vertex 12.000000000002675 44.49999237062396 8.000000000038844
    vertex 8.000000000002673 38.099992370623966 8.000000000016701
    vertex 8.414110472166705 38.04547369268647 8.000000000016826
  endloop
endfacet
facet normal 7.91940587182201e-14 -5.939554403866511e-14 1.0
  outer loop
    vertex 12.000000000002675 44.49999237062396 8.000000000038844
    vertex 8.414110472166705 38.04547369268647 8.000000000016826
    vertex 8.80000000000267 37.885633016679066 8.000000000016701
  endloop
endfacet
facet normal 7.91940587182201e-14 -5.939554403866511e-14 1.0
  outer loop
    vertex 12.000000000002675 44.49999237062396 8.000000000038844
    vertex 8.80000000000267 37.885633016679066 8.000000000016701
    vertex 9.131370849901147 37.63136322052244 8.000000000016364
  endloop
endfacet
facet normal 7.91940587182201e-14 -5.939554403866511e-14 1.0
  outer loop
    vertex 12.000000000002675 44.49999237062396 8.000000000038844
    vertex 9.131370849901147 37.63136322052244 8.000000000016364
    vertex 9.385640646057773 37.29999237062396 8.000000000015799
  endloop
endfacet
facet normal 7.91940587182201e-14 -5.939554403866511e-14 1.0
  outer loop
    vertex 12.000000000002675 44.49999237062396 8.000000000038844
    vertex 9.385640646057773 37.29999237062396 8.000000000015799
    vertex 9.54548132206518 36.914102842788 8.000000000015078
  endloop
endfacet
facet normal 7.91940587182201e-14 -5.939554403866511e-14 1.0
  outer loop
    vertex 12.000000000002675 44.49999237062396 8.000000000038844
    vertex 9.54548132206518 36.914102842788 8.000000000015078
    vertex 9.60000000000267 36.49999237062397 8.000000000014243
  endloop
endfacet
facet normal 7.91940587182201e-14 -5.939554403866511e-14 1.0
  outer loop
    vertex 12.000000000002675 44.49999237062396 8.000000000038844
    vertex 9.60000000000267 36.49999237062397 8.000000000014243
    vertex 12.000000000002672 28.49999237062396 8.000000000036945
  endloop
endfacet
facet normal -0.994207047565843 -1.2584966090186926e-14 0.10748184298015015
  outer loop
    vertex 16.00000000000487 44.49999237062176 45.000000000038845
    vertex 12.000000000002672 28.49999237062396 8.000000000036945
    vertex 16.000000000004867 28.49999237062176 45.00000000003695
  endloop
endfacet
facet normal -0.994207047565843 -1.2584966090186926e-14 0.10748184298015015
  outer loop
    vertex 12.000000000002672 28.49999237062396 8.000000000036945
    vertex 16.00000000000487 44.49999237062176 45.000000000038845
    vertex 12.000000000002675 44.49999237062396 8.000000000038844
  endloop
endfacet
endsolid REP-Y2_V3
